<svg id="On" xmlns="http://www.w3.org/2000/svg" width="20" height="20" viewBox="0 0 20 20">
  <defs>
    <style>
      .cls-1 {
        fill: #00e2aa;
      }

      .cls-2 {
        fill: #fff;
        fill-rule: evenodd;
      }
    </style>
  </defs>
  <circle id="Checkbox_BG_On" data-name="Checkbox BG On" class="cls-1" cx="10" cy="10" r="10"/>
  <path id="Check_Icon" data-name="Check Icon" class="cls-2" d="M899.317,662.888a1.086,1.086,0,0,1,1.556,0l3.111,3.168a1.136,1.136,0,0,1,0,1.586,1.086,1.086,0,0,1-1.556,0l-3.111-3.17A1.136,1.136,0,0,1,899.317,662.888Zm3.111,4.754a1.138,1.138,0,0,1,0-1.586L907.1,661.3a1.087,1.087,0,0,1,1.556,0,1.136,1.136,0,0,1,0,1.586l-4.667,4.754A1.086,1.086,0,0,1,902.428,667.642Z" transform="translate(-894 -654)"/>
</svg>
