<svg xmlns="http://www.w3.org/2000/svg" width="24" height="15" viewBox="0 0 24 15">
  <defs>
    <style>
      .cls-1 {
        fill: #fff;
        fill-rule: evenodd;
      }
    </style>
  </defs>
  <path id="G_Icon" data-name="G+ Icon" class="cls-1" d="M1265.61,1764a7.5,7.5,0,1,1,0-15,7.635,7.635,0,0,1,5.14,1.97l-2.24,2.16a4.508,4.508,0,0,0-2.9-1.04,4.411,4.411,0,1,0,0,8.82,4.5,4.5,0,0,0,4.2-2.84h-4.29v-3.14h7.54a7.4,7.4,0,0,1,.17,1.57A7.561,7.561,0,0,1,1265.61,1764Zm16.39-6.93h-2.65v2.61h-1.93v-2.61h-2.65v-1.9h2.65v-2.61h1.93v2.61H1282v1.9Z" transform="translate(-1258 -1749)"/>
</svg>
