<svg id="On" xmlns="http://www.w3.org/2000/svg" width="20" height="20" viewBox="0 0 20 20">
  <defs>
    <style>
      .cls-1 {
        fill: #00e2aa;
      }

      .cls-2 {
        fill: #fff;
        fill-rule: evenodd;
      }
    </style>
  </defs>
  <rect id="Checkbox_BG_On" data-name="Checkbox BG On" class="cls-1" width="20" height="20" rx="5" ry="5"/>
  <path id="Check_Icon" data-name="Check Icon" class="cls-2" d="M140.317,1391.89a1.082,1.082,0,0,1,1.556,0l3.111,3.17a1.129,1.129,0,0,1,0,1.58,1.081,1.081,0,0,1-1.555,0l-3.112-3.17A1.131,1.131,0,0,1,140.317,1391.89Zm3.112,4.75a1.129,1.129,0,0,1,0-1.58l4.666-4.76a1.1,1.1,0,0,1,1.556,0,1.141,1.141,0,0,1,0,1.59l-4.667,4.75A1.081,1.081,0,0,1,143.429,1396.64Z" transform="translate(-135 -1383)"/>
</svg>
