<svg xmlns="http://www.w3.org/2000/svg" width="17" height="14" viewBox="0 0 17 14">
  <defs>
    <style>
      .cls-1 {
        fill: #fff;
        fill-rule: evenodd;
      }
    </style>
  </defs>
  <path id="Twitter_Icon" data-name="Twitter Icon" class="cls-1" d="M1197,1751.66a7.161,7.161,0,0,1-2,.56,3.567,3.567,0,0,0,1.53-1.96,7.066,7.066,0,0,1-2.21.86,3.475,3.475,0,0,0-2.55-1.12,3.511,3.511,0,0,0-3.49,3.54,3.568,3.568,0,0,0,.09.8,9.838,9.838,0,0,1-7.18-3.69,3.555,3.555,0,0,0,1.07,4.72,3.369,3.369,0,0,1-1.57-.45v0.05a3.516,3.516,0,0,0,2.79,3.46,3.465,3.465,0,0,1-.92.13,2.815,2.815,0,0,1-.65-0.07,3.492,3.492,0,0,0,3.26,2.46,6.949,6.949,0,0,1-4.34,1.51,7.55,7.55,0,0,1-.83-0.05,9.83,9.83,0,0,0,5.35,1.59,9.931,9.931,0,0,0,9.92-10.06c0-.15,0-0.3-0.01-0.45a7.215,7.215,0,0,0,1.74-1.83h0Z" transform="translate(-1180 -1750)"/>
</svg>
